<?xml version="1.0" encoding="utf-8"?>
<!-- Generator: Adobe Illustrator 20.1.0, SVG Export Plug-In . SVG Version: 6.00 Build 0)  -->
<svg version="1.1" id="Layer_1" xmlns="http://www.w3.org/2000/svg" xmlns:xlink="http://www.w3.org/1999/xlink" x="0px" y="0px"
	 viewBox="0 0 391.9 315.5" style="enable-background:new 0 0 391.9 315.5;" xml:space="preserve">
<style type="text/css">
	.st0{opacity:0.6;}
	.st1{fill:#56C6D2;}
	.st2{fill:#FFFFFF;}
</style>
<g class="st0">
	<g>
		<path class="st1" d="M301,46.1C258.3,3.4,197-9.6,142.9,7c-0.8,0.1-1.5,0.4-2.2,0.8c-23,7.4-44.6,20.1-62.9,38.3
			c-42.6,42.8-55.6,104.1-39,158.2c0.2,0.7,0.4,1.4,0.7,2.1c6.8,20.9,18,40.6,33.7,57.7l-0.4,0.4c2.2,1.7,4.3,3.6,6.2,5.9
			c1.4,1.1,2.6,2.4,3.8,3.8L83,274c10.2,9.4,21.3,17.3,33.1,23.5c0.1,0.1,0.2,0.1,0.3,0.1c22.8,11.9,47.9,17.9,73,17.9
			c15.7,0,31.4-2.4,46.6-7.1c0.6-0.1,1.2-0.3,1.8-0.6c23.1-7.4,44.9-20.1,63.2-38.5c29.8-29.8,46.2-69.4,46.2-111.6
			S330.8,75.9,301,46.1z M275,42.2c5.6,4.2,11.1,8.6,16.2,13.7c16.2,16.1,27.9,35.5,34.8,56.6c-18,56.3-50.5,67.8-74.4,67.7
			c-19-0.3-35.6-7.6-45.6-14.5c16-2.1,36.9-10.5,53-26.1C274.1,124.9,294.1,93.8,275,42.2z M87.7,55.9c16.5-16.5,36-28,56.8-34.8
			c56.2,18.1,67.8,50.3,67.5,74.3c-0.3,19-7.6,35.6-14.5,45.6c-2.1-16-10.5-36.9-26.2-53C156.6,72.9,125.6,52.9,74,72
			C78.2,66.5,82.6,61,87.7,55.9z M103.9,273.2c-5.3-3.9-10.4-8.1-15.2-12.8c-0.3-0.4-0.4-0.8-0.8-1.2c-0.3-0.3-0.8-0.5-1.2-0.8
			c-16-16.3-27.2-35.4-33.9-55.8c18-56.2,50-67.7,74.3-67.5c18.9,0.3,35.6,7.6,45.6,14.5c-16,2.1-36.9,10.5-53,26.2
			C104.8,190.5,84.8,221.6,103.9,273.2z M291.2,259.4c-16.5,16.5-36,28-56.7,34.8c-56.2-18.1-67.8-50.3-67.5-74.3
			c0.3-18.9,7.6-35.6,14.5-45.6c2.1,16,10.5,36.9,26.2,53c10.4,10.7,29,23.9,57.3,23.9c11.7,0,25-2.3,40.1-7.9
			C300.8,248.9,296.3,254.4,291.2,259.4z"/>
	</g>
</g>
<g>
	<path class="st2" d="M103.7,148.8c4.1,0,8.2,2.4,8.2,6.7c0,0.5-0.1,1.2-0.3,1.8c-4.5,15.7-16.6,26.2-31.7,26.2
		c-3.1,0-5.7-0.4-8.1-1.2c-7.7,8-18.2,11.3-28,11.3c-10.2,0-20.1-4-24.6-10.4c-1.3,7.1-6.3,10.3-10.8,10.3c-4.4,0-8.4-3.1-8.4-8.4
		c0-1.3,0.3-3,0.9-4.6L34.7,85c1.8-5.9,6.7-8.6,11.1-8.6S54,79,54,83.2c4.9-2.4,9.7-3,13.3-3c1.8,0,3.2,0.1,4.4,0.3
		c11.2,1.2,21.1,9,21.1,22.2c0,9.9-5.9,21.3-14.6,27.1c5.4,5.8,7.6,12.9,7.6,19.7c0,6.6-1.9,12.9-4.8,17.8h0.1
		c7.1,0,12.2-5.3,14.9-13.3C97.2,150.4,100.4,148.8,103.7,148.8z M55,115.7c3.7,0,7.2,1.3,8.5,2.3c6.2-2.6,8-8.8,8-12.5
		c0-4.4-3.7-7.2-8.4-7.2c-5.5,0-12.8,3.1-16,9.4l-15.5,42.8c3.2-1.4,8.1-2.1,12.2-2.1c8.6,0.1,15.6,3.5,20.2,8
		c1-2.8,1.4-5.3,1.4-7.5c0-4.3-1.8-7.1-5-7.9c-1.3,0.5-3.1,0.8-5,0.8c-4.9,0-10.7-2.1-12.9-8.9c-0.3-1.2-0.4-2.3-0.4-3.5
		c0-5.9,3.7-11.2,7.9-12.9C51.6,116,53.3,115.7,55,115.7z M56.6,171c-3.5-3.5-6.8-6.3-12.1-6.3c-4.9,0-8.2,2.3-9.3,5.7
		c-0.3,0.6-0.3,1.3-0.3,1.9c0,3,2.7,5.2,7.5,5.2C47.1,177.4,52.6,175.3,56.6,171z"/>
	<path class="st2" d="M165.4,150c3.9,0,7.5,2.2,7.5,6.2c0,0.8-0.1,1.7-0.5,2.7c-8.5,24.6-28.9,33.4-46.8,33.4
		c-18.8,0-33.2-9.5-33.2-24.9c0-3,0.6-6.1,1.7-9.1l7.6-22c4.5-12.9,15.7-19.6,27.2-19.6c14.6,0,24.2,9.4,24.2,21.6
		c0,2.2-0.4,4.6-1,7.1c-3.5,11.6-13.8,18.9-25.5,18.9c-5.2,0-9.8-1.5-13.5-3.9l-1,2.4c-0.5,1.3-0.6,2.4-0.6,3.6
		c0,5.9,5.9,10.4,15.3,10.4c10.9,0,24.5-6.1,30.1-21C157.9,151.9,161.8,150,165.4,150z M120.8,138.1l-2.7,7.7c1.8,1,4.3,1.5,6.7,1.5
		c3.9,0,7.7-1.5,9-5.8c0.4-1,0.5-2.1,0.5-3.1c0-3.7-2.3-6.7-5.9-6.7C125.4,131.8,122.2,134.1,120.8,138.1z"/>
	<path class="st2" d="M240.5,155.4c0,2.3-1.4,5.5-3.2,10.6c-8.2,20.9-22.5,26.3-33.2,26.3c-3.9,0-13-1-17.1-7c-4.8,4.3-11,7-17,7
		c-11.3,0-20-8.8-20-19.5c0-2.3,0.5-4.6,1.3-7l12.1-34.7c3.5-9.9,12.8-14.6,21.3-14.6c6.6,0,11.6,1.9,14.3,3.6
		c2.1-3.2,5.8-4.9,9.4-4.9c4.8,0,9.4,3,9.4,8.6c0,1.3-0.3,2.7-0.8,4.3l-14.4,41.7c-0.4,1.4-0.6,2.7-0.6,3.7c0,2.1,1.3,3.2,3.5,3.2
		c5.8,0,13.9-5.3,18.9-21.1c1.5-4.9,5.5-7.1,9.1-7.1C237.1,148.7,240.5,151,240.5,155.4z M192.4,139.8c0-4.4-2.7-6.8-5.2-6.8
		c-2.1,0-5.7,1-8.1,8.9l-8.2,25.9c-0.4,1.2-0.8,2.7-0.8,4.4c0,3,1.4,4.8,4.3,4.8c2.7,0,7.6-1.9,10.3-10.3l6.2-19.2
		C191.9,144.2,192.4,141.7,192.4,139.8z"/>
	<path class="st2" d="M302.2,148.9c4,0,7.9,2.4,7.9,6.6c0,0.8-0.1,1.5-0.4,2.3c-9.1,26.8-23.2,34.4-35.4,34.4
		c-7.7,0-14.7-3.3-18.4-8.9c-4.8,5.2-10.6,8.9-18.3,8.9c-10.8,0-19.3-7.1-19.3-17.5c0-2.2,0.4-4.5,1.2-6.8l15.1-43.9
		c1.8-5.2,5.7-7.3,9.3-7.3c4.8,0,9.4,3.6,9.4,8.9c0,1.3-0.3,2.6-0.8,4l-14,40.2c-0.4,1.3-0.6,3-0.6,4c0,1.9,1,3.2,3,3.2
		c5.2,0,10.7-6.1,14.3-13.1l13.9-39.7c1.9-5.4,5.8-7.6,9.5-7.6c4.6,0,9.1,3.5,9.1,8.6c0,1.2-0.1,2.3-0.6,3.6l-15.3,43
		c-0.3,0.6-0.4,1.4-0.4,1.9c0,1.8,1.5,3.1,3.9,3.1c5.9,0,13-6.6,18.8-22C295.3,150.7,298.8,148.9,302.2,148.9z"/>
	<path class="st2" d="M335.8,81.4c0,2.1-0.3,4.1-0.9,5.9v-0.1c-2.7,7.6-10.2,12.1-19.3,12.1c-1.5,0-3.2-0.1-5.2-0.5
		c-7.2-1.7-4.5-10.7,2.3-8.9c2.2,0.5,4.6-0.1,6.2-1.5c-1.5-0.9-3.2-2.3-4.3-4h0.1c-1-1.7-1.5-3.5-1.5-5.3c0-3.6,1.9-7.1,5.2-9.1
		c1.8-1,3.7-1.4,5.5-1.4c1.5,0,3.2,0.4,4.6,1l-0.1-0.1l0.6,0.4C333.9,72,335.8,76.7,335.8,81.4z"/>
	<path class="st2" d="M391.7,158.6c-8.2,23.7-25.1,34.5-52.2,34.5c-19.5,0-34.8-6.8-34.8-22.4c0-8.2,5.4-16.6,12.9-20.2
		c5.2-9.7,10.6-19.6,15.6-29.4c2.6-5,7.1-7.5,12.2-7.5c6.4,0,10.7,5.2,10.7,10.7c0,3.9-2.8,8-6.4,9.5c0.5,4,3.1,8.4,5.7,12.8
		c3.6,6.1,7.6,13.1,7.6,20.6c0,1.7-0.3,3.2-0.5,4.9c5.8-3.5,10.4-8.8,13.5-16.4c0.4-0.9,1.8-1.8,2.8-1.8l10.3,0.9
		C391.2,155,392.3,156.8,391.7,158.6z M333.2,178.2c7.2-0.3,12.6-5.5,12.6-11.7c0-5.4-5.7-15.5-7.5-21c-0.8,1.7-1.7,3.3-2.7,5.5
		c3.7,2.4,5.8,6.4,5.8,10.6c0,6.3-5.2,10.9-10.8,10.9c-3,0-5.7-1.2-7.5-3.1v0.6C323,175,327.8,178.2,333.2,178.2z"/>
</g>
<g>
	<path class="st2" d="M85.9,223.1c2.5,0.7,4.3,1.7,5.4,3.2s1.7,3.3,1.7,5.5c0,3.3-1.2,5.7-3.5,7.4c-2.3,1.7-5.8,2.5-10.6,2.5h-12
		v-3.6h3.9v-28h-3.9v-3.6h11.9c4.6,0,7.8,0.7,9.8,2s3,3.5,3,6.6c0,1.9-0.4,3.4-1.3,4.7c-0.9,1.3-2.4,2.3-4.5,3L85.9,223.1
		L85.9,223.1z M79.2,221.6c2.7,0,4.8-0.5,6.2-1.4c1.4-0.9,2.1-2.4,2.1-4.5c0-2-0.6-3.5-1.9-4.3s-3.6-1.2-7-1.2h-3.8v11.4H79.2z
		 M79.3,238.3c3.2,0,5.6-0.5,7.1-1.5c1.6-1,2.4-2.6,2.4-4.9c0-2.1-0.7-3.7-2.1-4.9c-1.4-1.2-3.6-1.8-6.7-1.8h-5.2v13L79.3,238.3
		L79.3,238.3z"/>
	<path class="st2" d="M99.9,224.2c0-5.3,1.5-9.5,4.4-12.7c3-3.2,6.9-4.8,11.9-4.8c4.8,0,8.6,1.5,11.4,4.6c2.8,3.1,4.2,7.2,4.2,12.5
		c0,5.6-1.5,10-4.4,13.2c-3,3.3-6.8,4.9-11.7,4.9c-4.8,0-8.6-1.6-11.5-4.8C101.3,233.9,99.9,229.6,99.9,224.2z M104.1,223.9
		c0,4.3,1,7.8,3.1,10.4s5,3.9,8.6,3.9c3.7,0,6.6-1.3,8.6-3.9c2.1-2.6,3.1-6.1,3.1-10.4c0-4.1-1-7.4-3-9.9s-4.9-3.7-8.7-3.7
		s-6.7,1.2-8.7,3.6C105.1,216.3,104.1,219.6,104.1,223.9z"/>
	<path class="st2" d="M164.7,210.2h-3.9v-3.6h11.7v3.6h-3.9v31.6h-3.9l-19.3-28.1h-0.3v24.5h3.9v3.6h-11.7v-3.6h3.9v-28h-3.9v-3.6
		h7.8l19.3,28h0.3L164.7,210.2L164.7,210.2z"/>
	<path class="st2" d="M195.4,223.1c2.5,0.7,4.3,1.7,5.4,3.2c1.1,1.5,1.7,3.3,1.7,5.5c0,3.3-1.2,5.7-3.5,7.4
		c-2.3,1.7-5.8,2.5-10.6,2.5h-12.1v-3.6h3.9v-28h-3.9v-3.6h11.9c4.6,0,7.8,0.7,9.8,2s3,3.5,3,6.6c0,1.9-0.4,3.4-1.3,4.7
		c-0.9,1.3-2.4,2.3-4.5,3v0.3H195.4z M188.7,221.6c2.7,0,4.8-0.5,6.2-1.4s2.1-2.4,2.1-4.5c0-2-0.6-3.5-1.9-4.3
		c-1.3-0.8-3.6-1.2-7-1.2h-3.8v11.4H188.7z M188.8,238.3c3.2,0,5.6-0.5,7.1-1.5c1.6-1,2.4-2.6,2.4-4.9c0-2.1-0.7-3.7-2.1-4.9
		c-1.4-1.2-3.6-1.8-6.7-1.8h-5.2v13L188.8,238.3L188.8,238.3z"/>
	<path class="st2" d="M209.4,224.2c0-5.3,1.5-9.5,4.4-12.7c3-3.2,6.9-4.8,11.9-4.8c4.8,0,8.6,1.5,11.4,4.6c2.8,3.1,4.2,7.2,4.2,12.5
		c0,5.6-1.5,10-4.4,13.2c-3,3.3-6.8,4.9-11.7,4.9c-4.8,0-8.6-1.6-11.5-4.8C210.8,233.9,209.4,229.6,209.4,224.2z M213.6,223.9
		c0,4.3,1,7.8,3.1,10.4s5,3.9,8.6,3.9c3.7,0,6.6-1.3,8.6-3.9c2.1-2.6,3.1-6.1,3.1-10.4c0-4.1-1-7.4-3-9.9s-4.9-3.7-8.7-3.7
		s-6.7,1.2-8.7,3.6C214.7,216.3,213.6,219.6,213.6,223.9z"/>
	<path class="st2" d="M274.3,210.2h-3.9v-3.6h11.7v3.6h-3.9v31.6h-3.9L255,213.7h-0.3v24.5h3.9v3.6h-11.7v-3.6h3.9v-28h-3.9v-3.6
		h7.8l19.3,28h0.3L274.3,210.2L274.3,210.2z"/>
	<path class="st2" d="M296.3,241.9c-3.4,0-6.9-0.7-10.3-2.2v-8.3h3.9v5.9c2,0.7,4.3,1,7,1s4.9-0.5,6.4-1.6c1.5-1,2.2-2.3,2.2-3.9
		c0-0.9-0.2-1.6-0.5-2.2s-0.8-1.2-1.5-1.6c-0.7-0.5-1.6-0.9-2.7-1.4c-1.1-0.4-2.4-0.9-3.9-1.4c-1.3-0.4-2.6-0.9-3.9-1.4
		s-2.5-1.2-3.7-1.9c-1.1-0.7-2-1.7-2.7-2.8c-0.7-1.1-1-2.4-1-4c0-2.8,1.2-5.1,3.5-6.8c2.3-1.7,5.4-2.6,9.3-2.6
		c3.6,0,6.8,0.7,9.7,2.2v8.2h-3.9v-5.8c-1.7-0.7-3.8-1-6.3-1c-2.6,0-4.6,0.5-6,1.6s-2.1,2.3-2.1,3.8c0,1,0.2,1.8,0.6,2.4
		s0.9,1.2,1.7,1.7c0.7,0.5,1.7,1,2.7,1.4c1.1,0.4,2.4,0.9,3.8,1.3c1.3,0.4,2.6,0.9,3.9,1.4s2.5,1.1,3.6,1.9c1.1,0.7,1.9,1.6,2.6,2.7
		s1,2.4,1,3.9c0,3-1.2,5.4-3.6,7.1C303.8,241,300.5,241.9,296.3,241.9z"/>
</g>
</svg>
