<?xml version="1.0" encoding="utf-8"?>
<!-- Generator: Adobe Illustrator 20.1.0, SVG Export Plug-In . SVG Version: 6.00 Build 0)  -->
<svg version="1.1" id="Layer_1" xmlns="http://www.w3.org/2000/svg" xmlns:xlink="http://www.w3.org/1999/xlink" x="0px" y="0px"
	 viewBox="0 0 168.4 41" style="enable-background:new 0 0 168.4 41;" xml:space="preserve">
<style type="text/css">
	.st0{fill:#FFFFFF;}
</style>
<g>
	<g>
		<path class="st0" d="M74.5,26.2c1.3,0,2.7,0.8,2.7,2.2c0,0.2,0,0.4-0.1,0.6c-1.5,5.1-5.4,8.5-10.3,8.5c-1,0-1.8-0.1-2.6-0.4
			c-2.5,2.6-5.9,3.7-9.1,3.7c-3.3,0-6.6-1.3-8-3.4c-0.4,2.3-2.1,3.4-3.5,3.4c-1.4,0-2.7-1-2.7-2.7c0-0.4,0.1-1,0.3-1.5L52,5.4
			c0.6-1.9,2.2-2.8,3.6-2.8s2.7,0.8,2.7,2.2c1.6-0.8,3.2-1,4.3-1c0.6,0,1.1,0,1.4,0.1c3.7,0.4,6.9,2.9,6.9,7.2
			c0,3.2-1.9,6.9-4.7,8.8c1.8,1.9,2.5,4.2,2.5,6.4c0,2.1-0.6,4.2-1.6,5.8h0c2.3,0,4-1.7,4.9-4.3C72.4,26.7,73.4,26.2,74.5,26.2z
			 M58.6,15.4c1.2,0,2.4,0.4,2.8,0.8c2-0.8,2.6-2.9,2.6-4.1c0-1.4-1.2-2.4-2.7-2.4c-1.8,0-4.2,1-5.2,3.1l-5,13.9
			c1.1-0.5,2.6-0.7,4-0.7c2.8,0,5.1,1.1,6.6,2.6c0.3-0.9,0.5-1.7,0.5-2.4c0-1.4-0.6-2.3-1.6-2.6c-0.4,0.2-1,0.3-1.6,0.3
			c-1.6,0-3.5-0.7-4.2-2.9c-0.1-0.4-0.1-0.8-0.1-1.1c0-1.9,1.2-3.7,2.6-4.2C57.5,15.5,58,15.4,58.6,15.4z M59.1,33.4
			c-1.1-1.1-2.2-2.1-3.9-2.1c-1.6,0-2.7,0.8-3,1.8c-0.1,0.2-0.1,0.4-0.1,0.6c0,1,0.9,1.7,2.4,1.7C56,35.5,57.8,34.8,59.1,33.4z"/>
		<path class="st0" d="M94.6,26.5c1.3,0,2.4,0.7,2.4,2c0,0.3,0,0.5-0.2,0.9c-2.8,8-9.4,10.9-15.2,10.9c-6.1,0-10.8-3.1-10.8-8.1
			c0-1,0.2-2,0.5-3l2.5-7.2c1.5-4.2,5.1-6.4,8.9-6.4c4.7,0,7.9,3.1,7.9,7.1c0,0.7-0.1,1.5-0.3,2.3c-1.1,3.8-4.5,6.2-8.3,6.2
			c-1.7,0-3.2-0.5-4.4-1.3l-0.3,0.8c-0.2,0.4-0.2,0.8-0.2,1.2c0,1.9,1.9,3.4,5,3.4c3.6,0,8-2,9.8-6.8C92.2,27.2,93.4,26.5,94.6,26.5
			z M80.1,22.7l-0.9,2.5c0.6,0.3,1.4,0.5,2.2,0.5c1.3,0,2.5-0.5,2.9-1.9c0.1-0.3,0.2-0.7,0.2-1c0-1.2-0.8-2.2-1.9-2.2
			C81.6,20.6,80.5,21.4,80.1,22.7z"/>
		<path class="st0" d="M119.1,28.3c0,0.8-0.5,1.8-1,3.4c-2.7,6.8-7.4,8.6-10.8,8.6c-1.3,0-4.2-0.3-5.6-2.3c-1.6,1.4-3.6,2.3-5.5,2.3
			c-3.7,0-6.5-2.9-6.5-6.3c0-0.8,0.2-1.5,0.4-2.3l3.9-11.3c1.1-3.2,4.2-4.7,6.9-4.7c2.1,0,3.8,0.6,4.7,1.2c0.7-1.1,1.9-1.6,3.1-1.6
			c1.6,0,3.1,1,3.1,2.8c0,0.4-0.1,0.9-0.3,1.4l-4.7,13.6c-0.1,0.5-0.2,0.9-0.2,1.2c0,0.7,0.4,1,1.1,1c1.9,0,4.5-1.7,6.2-6.9
			c0.5-1.6,1.8-2.3,3-2.3C118,26.1,119.1,26.9,119.1,28.3z M103.4,23.2c0-1.4-0.9-2.2-1.7-2.2c-0.7,0-1.8,0.3-2.6,2.9l-2.7,8.4
			c-0.1,0.4-0.3,0.9-0.3,1.4c0,1,0.5,1.6,1.4,1.6c0.9,0,2.5-0.6,3.4-3.4l2-6.3C103.2,24.7,103.4,23.9,103.4,23.2z"/>
		<path class="st0" d="M139.2,26.2c1.3,0,2.6,0.8,2.6,2.1c0,0.3,0,0.5-0.1,0.8c-3,8.7-7.6,11.2-11.6,11.2c-2.5,0-4.8-1.1-6-2.9
			c-1.6,1.7-3.4,2.9-6,2.9c-3.5,0-6.3-2.3-6.3-5.7c0-0.7,0.1-1.5,0.4-2.2l4.9-14.3c0.6-1.7,1.8-2.4,3-2.4c1.6,0,3.1,1.2,3.1,2.9
			c0,0.4-0.1,0.8-0.3,1.3L118.4,33c-0.1,0.4-0.2,1-0.2,1.3c0,0.6,0.3,1,1,1c1.7,0,3.5-2,4.7-4.3l4.6-12.9c0.6-1.8,1.9-2.5,3.1-2.5
			c1.5,0,3,1.1,3,2.8c0,0.4,0,0.8-0.2,1.2l-5,14c-0.1,0.2-0.1,0.5-0.1,0.6c0,0.6,0.5,1,1.3,1c1.9,0,4.2-2.1,6.1-7.2
			C137,26.8,138.1,26.2,139.2,26.2z"/>
		<path class="st0" d="M150.2,4.2c0,0.7-0.1,1.3-0.3,1.9v0c-0.9,2.5-3.3,3.9-6.3,3.9c-0.5,0-1.1,0-1.7-0.2c-2.4-0.5-1.5-3.5,0.8-2.9
			c0.7,0.2,1.5,0,2-0.5c-0.5-0.3-1.1-0.8-1.4-1.3h0c-0.3-0.5-0.5-1.1-0.5-1.7c0-1.2,0.6-2.3,1.7-3c0.6-0.3,1.2-0.5,1.8-0.5
			c0.5,0,1.1,0.1,1.5,0.3l0,0l0.2,0.1C149.5,1.1,150.2,2.6,150.2,4.2z"/>
		<path class="st0" d="M168.4,29.4c-2.7,7.7-8.2,11.3-17,11.3c-6.3,0-11.3-2.2-11.3-7.3c0-2.7,1.8-5.4,4.2-6.6
			c1.7-3.2,3.4-6.4,5.1-9.6c0.8-1.6,2.3-2.4,4-2.4c2.1,0,3.5,1.7,3.5,3.5c0,1.3-0.9,2.6-2.1,3.1c0.2,1.3,1,2.7,1.8,4.2
			c1.2,2,2.5,4.3,2.5,6.7c0,0.5-0.1,1.1-0.2,1.6c1.9-1.1,3.4-2.9,4.4-5.3c0.1-0.3,0.6-0.6,0.9-0.6l3.4,0.3
			C168.2,28.2,168.6,28.8,168.4,29.4z M149.3,35.7c2.4-0.1,4.1-1.8,4.1-3.8c0-1.8-1.8-5-2.4-6.8c-0.3,0.5-0.5,1.1-0.9,1.8
			c1.2,0.8,1.9,2.1,1.9,3.4c0,2.1-1.7,3.6-3.5,3.6c-1,0-1.8-0.4-2.4-1v0.2C146,34.7,147.5,35.7,149.3,35.7z"/>
	</g>
	<g>
		<path class="st0" d="M29.9,11c-4.8-4.8-11.6-6.2-17.6-4.4c-0.1,0-0.2,0-0.2,0.1c-2.6,0.8-5,2.2-7,4.3c-4.8,4.8-6.2,11.6-4.3,17.6
			c0,0.1,0,0.2,0.1,0.2c0.8,2.3,2,4.5,3.7,6.4l0,0c0.2,0.2,0.5,0.4,0.7,0.7c0.2,0.1,0.3,0.3,0.4,0.4l0,0c1.1,1,2.4,1.9,3.7,2.6
			c0,0,0,0,0,0c2.5,1.3,5.3,2,8.1,2c1.7,0,3.5-0.3,5.2-0.8c0.1,0,0.1,0,0.2-0.1c2.6-0.8,5-2.2,7-4.3c3.3-3.3,5.1-7.7,5.1-12.4
			S33.3,14.3,29.9,11z M27.1,10.6c0.6,0.5,1.2,1,1.8,1.5c1.8,1.8,3.1,4,3.9,6.3c-2,6.3-5.6,7.5-8.3,7.5c-2.1,0-4-0.8-5.1-1.6
			c1.8-0.2,4.1-1.2,5.9-2.9C27,19.8,29.2,16.3,27.1,10.6z M6.2,12.1c1.8-1.8,4-3.1,6.3-3.9c6.3,2,7.5,5.6,7.5,8.3
			c0,2.1-0.8,4-1.6,5.1c-0.2-1.8-1.2-4.1-2.9-5.9c-1.6-1.7-5.1-3.9-10.8-1.8C5.2,13.3,5.7,12.7,6.2,12.1z M8,36.3
			c-0.6-0.4-1.2-0.9-1.7-1.4c0,0,0-0.1-0.1-0.1c0,0-0.1-0.1-0.1-0.1c-1.8-1.8-3-3.9-3.8-6.2c2-6.3,5.6-7.5,8.3-7.5
			c2.1,0,4,0.8,5.1,1.6c-1.8,0.2-4.1,1.2-5.9,2.9C8.1,27.1,5.9,30.5,8,36.3z M28.9,34.7c-1.8,1.8-4,3.1-6.3,3.9
			c-6.3-2-7.5-5.6-7.5-8.3c0-2.1,0.8-4,1.6-5.1c0.2,1.8,1.2,4.1,2.9,5.9c1.2,1.2,3.2,2.7,6.4,2.7c1.3,0,2.8-0.3,4.5-0.9
			C29.9,33.6,29.4,34.2,28.9,34.7z"/>
	</g>
</g>
</svg>
